<?xml version="1.0" encoding="UTF-8"?>
<svg fill="currentColor" id="Calque_2" xmlns="http://www.w3.org/2000/svg" viewBox="0 0 81.81 78.79">
  <defs>
    <style>
      .cls-1 {
        fill: #1d1d1d;
      }
    </style>
  </defs>
  <g id="Calque_1-2" data-name="Calque_1">
    <g>
      <g>
        <path class="cls-1" d="M38.41.33c-.16.24-.17.66-.2,1.06.15-.31.22-.63.2-1.06Z"/>
        <path class="cls-1" d="M38.21,1.4h0s0,0,0,0h0Z"/>
        <path class="cls-1" d="M42.07,78.53c.01-.1.03-.21.04-.33-.02.11-.04.22-.04.33Z"/>
        <path class="cls-1" d="M37.94,20.61l.26.06c.02.94-.3.28-.22,1.14.38.33-.02,1.44.18,1.73-.03,0-.04.42-.15.39.2.13.05.44.11.7.06.1.06-.07.12-.15l.08.61c-.06.24-.18.3-.21.04-.05,1.6-.18,9.25-.11,10.96.15-.22.05-.75.3-.95.13.45-.05.67.09.87-.36.17-.09.99-.46,1.33l.2.13-.13.22c.19,1.99.11.46.03,2.21.01,1.02.28,1.51.17,2.07,0-.08.13-.31.18-.04-.18.04.11.71-.07.83.02.26-.03,1.1.22.82-.13.14-.2.88-.29.44-.02.25-.06.49-.01.68l.08-.32c0,.85-.2,1.31,0,1.87l.11-.31c0,.51,0,.93-.25,1.12l-.06-.52c-.03.84-.02,1.35.07,2.06l.02-.25c.2.9.14,5.59.35,6.43l.21-.37.1.72c0-.08-.58-.39-.51-.45-.03,1.52-.68,9.4-1.01,10.78-.17.55-.31.07-.34.06-.01.69.16.32.08.9-.05.15-.14-.05-.16-.14,0,.26-.1.49-.02.52.1-.31.32-.15.48-.26l-.11.75-.14-.05c-.03.17.34.47.16,1.2-.24,1.23-.37,2.58-.58,3.82-.08-.03-.1-.3-.11-.57-.03.17-.04.42-.13.57.2-.28.02.54.12.31.21.96-.31,2.09-.2,2.93.31.11,5.17,2.65,5.54,2.72-.05.25-.1.51-.14.58.1-.05.22-.55.22-.82l-.19-.08c.03-.63.14-.12.23-.73.17,0,.12.55.05,1.04.09-.43.28-.85.13-1.06.14-.4.19.08.35-.4,0-.36-.08-.85.09-1.24h.03c.33-.95,0-1.54.31-2.41l.04.11c.14-.31.1-.95.28-1.52-.06.16-.2.29-.17-.06.2-.65.16-1.12.35-1.58l-.1-.49c.2-1.15.48-4.02.75-6.9.22-2.88.43-5.76.48-6.93l.02.09c.24-3.56.56-10.87.38-14.54.17-.56.15-1.35.21-1.94-.07.33-.19.21-.17-.04.04-1.8-.11-.12-.16-1.94-.1-2.1,0-10.09.12-11.95-.25-.99-.09-2.23-.25-3.2l.06.1c-.1-1.05.03-6.95-.07-8.16l-.03.16c-.16-1.05.1-.91.17-1.74-.27.11-.43-.79-.45-1.13h.06c-.05-.51-.3-1.68-.34-2.54l.15.03c-.16-.71-.11-2.06-.13-2.57.05-1.18.31-2.99.11-4.56l.42-1.01-.04-.15s-5.04-1.65-6.11.43l-.15-.03.02.41c-.07.5.1.73-.05.69l.02-.68c-.04.5-.12.15-.2-.04-.01.21-.03.41-.08.58.06.1.06-.07.09-.15.05.27.19.64.12.97-.01.51-.24.03-.25.63-.11,3.14-.25,6.19-.18,9.36-.06.07-.06-.01-.09-.1.08.95.06,1.8.14,2.67-.06.24-.15.31-.21.38.06-.07.11,1.12.14,2.35.01.61.02,1.23.03,1.7,0,.47,0,.79,0,.81Z"/>
      </g>
      <g>
        <path class="cls-1" d="M.51,39.05c.28.15.74.13,1.18.13-.35-.13-.7-.17-1.18-.13Z"/>
        <path class="cls-1" d="M1.69,39.18h0s-.02,0-.02,0h0Z"/>
        <path class="cls-1" d="M81.81,42.02c-.03-.16-.06-.34-.1-.52.03.17.06.35.1.52Z"/>
        <path class="cls-1" d="M21.78,37.77l.04-.27c.97-.09.31.28,1.2.13.32-.4,1.5-.09,1.79-.31,0,.03.44,0,.42.12.12-.21.45-.08.72-.16.1-.06-.08-.05-.16-.11l.63-.12c.25.05.32.16.06.2,1.67-.08,9.65-.39,11.42-.53-.24-.14-.78-.02-1-.25.47-.16.7.02.9-.13.2.35,1.04.04,1.41.39l.13-.21.24.12c2.06-.28.47-.12,2.31-.13,1.06-.05,1.56-.35,2.15-.25-.09,0-.32-.12-.05-.18.05.18.73-.14.87.04.27-.03,1.14,0,.84-.25.15.12.93.17.46.27.26,0,.52.04.7-.01l-.34-.07c.89-.03,1.37.15,1.94-.06l-.33-.1c.53-.01.97-.02,1.18.22l-.54.07c.88,0,1.4,0,2.13-.11h-.26c.94-.26,5.79-.23,6.65-.42l-.38-.22.74-.1c-.09-.01-.4.57-.47.51.78.05,3.2.22,5.55.56,2.35.34,4.59.9,5.21,1.16.5.25.01.31,0,.34.66.12.33-.11.86.08.13.08-.08.13-.16.13.24.06.43.19.48.11-.27-.16-.07-.34-.15-.52.23.09.46.16.68.25l-.08.13c.14.06.53-.24,1.14.1,1.05.51,2.15,1.05,2.93,1.72-.07.06-.27-.03-.46-.12.11.08.28.2.34.32-.09-.27.4.18.29.01.82.22,1.13,1.11,1.56,1.47.16-.06,1.51-.41,3.02-.39,1.46,0,3,.39,3.17.36.06.4.12.8.1.93.07-.11,0-.92-.15-1.32l-.22-.02c-.34-.92.07-.26-.25-1.17.15-.12.48.73.66,1.5-.13-.69-.23-1.44-.52-1.64-.2-.65.23,0-.04-.79-.3-.51-.81-1.1-1.11-1.66h.03c-.81-1.39-1.7-1.62-2.57-2.54l.14.04c-.3-.37-1.08-.77-1.68-1.25.17.14.27.34-.13.12-.7-.54-1.26-.69-1.75-1.08-.2-.04-.4-.06-.59-.09-.65-.31-1.78-.73-3.15-1.14-1.36-.4-2.95-.76-4.52-1.03-3.15-.55-6.24-.77-7.49-.87l.1-.02c-1.91-.13-4.81-.29-7.7-.31-2.89-.03-5.79.05-7.72.2-.6-.15-1.43-.09-2.05-.12.35.06.23.18-.04.18-1.9.04-.13.11-2.04.25-2.2.19-10.62.53-12.57.57-1.03.32-2.34.24-3.35.48l.1-.06c-1.09.17-7.31.51-8.57.73l.17.02c-1.09.25-.97-.02-1.85-.02.14.26-.79.5-1.15.55v-.06c-.53.1-1.74.45-2.64.58l.02-.15c-.73.23-2.15.3-2.68.37-1.23.06-3.15-.01-4.74.3l-1.06-.34-.15.05s-.33,1.28-.42,2.68c-.09,1.4.09,2.93,1.27,3.39l-.03.15.45-.05c.54.03.77-.16.75,0l-.73.04c.54,0,.17.11-.03.21.22,0,.44,0,.63.03.1-.06-.08-.05-.17-.08.29-.07.67-.24,1.02-.2.54-.03.05.23.69.19,3.33-.18,6.5-.34,9.79-.7.08.05,0,.06-.1.1.99-.16,1.87-.22,2.76-.37.26.04.33.12.41.18-.08-.05,1.16-.2,2.43-.33.64-.06,1.28-.12,1.77-.17.49-.04.82-.06.85-.06Z"/>
      </g>
    </g>
  </g>
</svg>