<svg id="Calque_2" xmlns="http://www.w3.org/2000/svg" viewBox="0 0 31.46 41.89">
 <path class="cls-1" d="M11.87.13c-.13.09-.14.25-.16.39.12-.11.18-.23.16-.39Z"/>
        <polygon class="cls-1" points="11.7 .52 11.7 .52 11.7 .52 11.7 .52"/>
        <path class="cls-1" d="M17.53,29.04s0-.08,0-.12c0,.04,0,.08,0,.12Z"/>
        <path class="cls-1" d="M11.33,7.64l.22.02c0,.35-.25.1-.19.42.31.13-.03.54.13.65-.02,0-.03.16-.13.15.17.05.04.16.08.26.05.04.05-.03.1-.05l.06.23c-.05.09-.15.11-.17.01-.06.6-.22,3.46-.14,4.1.13-.08.04-.28.24-.36.11.17-.04.25.08.32-.29.07-.07.37-.37.5l.17.05-.1.08c.17.75.08.17.05.83.03.38.26.57.17.78,0-.03.1-.12.15-.02-.15.02.1.26-.04.31.02.1,0,.41.2.31-.1.05-.14.33-.23.17,0,.09-.04.19,0,.25l.06-.12c.03.32-.13.49.05.7l.08-.12c.01.19.03.35-.17.43l-.06-.2c0,.32.02.51.12.77v-.09c.2.34.36,2.1.61,2.41l.15-.14.13.27s-.5-.13-.45-.16c.01.57.13,3.55.03,4.08-.08.21-.24.04-.27.04.06.26.16.11.15.33-.03.06-.12-.01-.14-.05.02.1-.03.19.04.19.06-.12.25-.07.37-.12l-.02.28h-.12c0,.05.33.15.26.43-.05.47,0,.98-.04,1.45-.07,0-.11-.11-.16-.21,0,.06.01.16-.04.22.13-.11.08.2.14.11.29.35.03.79.22,1.1.26.03,4.52.65,4.84.65,0,.09-.01.19-.04.22.07-.02.11-.21.07-.31l-.17-.02c-.06-.23.1-.05.09-.28.14-.01.17.19.18.37.02-.16.12-.32-.03-.39.06-.15.17.02.23-.17-.04-.13-.17-.3-.09-.45h.02c.14-.36-.21-.56-.07-.89l.05.04c.08-.12-.03-.35.06-.56-.03.06-.13.11-.14-.01.09-.25,0-.41.11-.59l-.13-.17c.03-.85-.16-4.22-.19-5.08l.02.03c-.07-1.31-.06-3.99-.24-5.34.13-.21.1-.5.14-.71-.06.12-.15.08-.14-.01.02-.66-.09-.04-.15-.72-.12-.77.02-3.73.13-4.42-.2-.37-.05-.83-.17-1.19l.05.04c-.07-.39.11-2.58.04-3.03l-.03.06c-.12-.39.09-.34.16-.65-.22.04-.34-.3-.36-.42h.05c-.04-.19-.23-.63-.26-.95h.12c-.13-.25-.08-.76-.09-.95.05-.44.26-1.11.1-1.7l.34-.38-.03-.06s-4.12-.61-5,.16h-.12s.02.14.02.14c-.06.18.08.27-.04.26v-.25c-.02.18-.08.06-.15-.01-.01.08-.03.15-.06.21.05.04.05-.03.08-.06.04.1.15.24.1.36-.01.19-.19.01-.21.23-.09,1.16-.23,2.29-.2,3.47-.05.03-.05,0-.07-.04.05.35.03.67.09.99-.05.09-.13.11-.18.14.1-.05.11,1.78.08,1.81Z"/>
        <path class="cls-1" d="M0,25.19c0,.17.15.3.28.43-.03-.18-.12-.32-.28-.43Z"/>
        <polygon class="cls-1" points=".28 25.63 .29 25.63 .28 25.63 .28 25.63"/>
        <path class="cls-1" d="M29.07,20.88s-.07.07-.11.11c.04-.03.08-.07.11-.11Z"/>
        <path class="cls-1" d="M6.14,32.96l.19-.1c.31.41-.11.27.21.61.35-.03.44.65.68.69-.02.01.11.21.03.25.18-.04.18.17.3.26.07.01.02-.06.03-.12l.25.24c.04.14-.01.23-.12.12.14.19.4.55.72,1,.18.22.37.47.57.72l.15.19.08.1.14.15.59.63c.75.86,1.67,1.67,2.42,2.35.76.68,1.39,1.23,1.72,1.5-.17-.32-.58-.57-.71-.95.35.16.5.49.65.47.08.32.38.56.63.81.13-.13.26-.22.36-.18l.06-.35.17-.05c1.32-1.93.28-.49,1.53-1.98.7-.94.92-1.47,1.37-1.81-.06.06-.28.13-.13-.08.06.04.17-.1.28-.25.13-.16.12-.19.21-.18.07-.1.4-.37.16-.42.12.02.43-.2.32.01.1-.08.21-.14.24-.24l-.16.07c.3-.31.57-.36.66-.68l-.17.05c.19-.18.34-.34.55-.26l-.16.22c.32-.29.51-.47.72-.79l-.1.08c.22-.45,2.01-2.14,2.21-2.6h-.25s.22-.33.22-.33c-.04.03.17.5.11.49.6-.52,3.87-3.19,4.54-3.57.29-.12.19.16.2.18.26-.27.03-.23.29-.41.09-.03.06.11.03.15.1-.1.23-.14.2-.2-.17.06-.23-.13-.36-.19l.33-.23.06.11c.07-.05-.02-.4.34-.59.57-.37,1.12-.85,1.68-1.26.04.06-.05.19-.14.31.07-.05.17-.16.27-.17-.21,0,.17-.25.04-.21.21-.54.89-.75,1.12-1.19-.11-.24-2.18-4.07-2.42-4.29.1-.08.2-.15.24-.16-.07-.03-.28.1-.35.21l.09.14c-.19.24-.12-.03-.33.17-.1-.1.08-.29.25-.45-.17.12-.39.18-.36.36-.19.09-.09-.14-.31-.03-.11.14-.21.39-.42.46v-.02c-.48.2-.49.64-.93.82v-.07c-.17.04-.35.32-.64.44.08-.03.2,0,.07.13-.33.14-.46.36-.72.43l-.11.26c-.96.71-4.7,3.81-5.66,4.62l.02-.05c-.72.61-1.85,1.55-2.96,2.53-.55.5-1.11,1-1.6,1.51-.25.25-.48.48-.7.72l-.08.08v.02s-.04.04-.04.04c-.02.03-.02.05-.03.08-.11-.08-.13,0-.18-.01.04.04.07.15.05.16-.13.12.02.11-.11.35,0,.02-.02.04-.03.07-.02.08-.06.03-.1,0-.04-.03-.09-.07-.15-.12-.11-.11-.19-.19-.33-.38-.25-.33-.5-.65-.71-.92-.29-.38-.5-.71-.62-.89-.46-.27-.73-.86-1.12-1.19h.07c-.37-.35-2.07-3.02-2.57-3.53l.03.09c-.45-.39-.24-.46-.48-.87-.14.18-.54-.14-.68-.28l.04-.02c-.22-.2-.79-.6-1.14-.94l.1-.07c-.37-.22-.85-.83-1.08-1.02-.43-.52-1.07-1.41-1.9-1.87l-.26-.64-.09-.03s-.82.67-1.56,1.53c-.75.86-1.43,1.91-1.32,2.56l-.09.08.16.11c.14.19.31.15.23.23l-.24-.21c.16.17,0,.12-.12.12.07.07.13.14.17.21.06,0,0-.06,0-.1.12.04.33.06.41.21.17.17-.12.16.08.35,1.02,1.03,1.87,2.18,2.86,3.38-.02.06-.04.02-.09,0,.33.33.58.68.88,1.01.03.13,0,.2-.03.26.03-.14,1.56,1.95,1.58,2.01Z"/>
</svg>