<?xml version="1.0" encoding="UTF-8"?>
<svg id="Calque_2" xmlns="http://www.w3.org/2000/svg" viewBox="0 0 152.41 186.46">
  <g id="Calque_1-2" data-name="Calque_1">
    <g>
      <path d="M123.8,151.87c5.04-8.28,6.45-18.3,8.47-27.62,2.14-9.87,4.27-19.73,6.41-29.6.09-.08.18-.17.27-.27,10.7-13.14,15.32-30.6,12.79-47.32-.17-1.15-1.41-1.75-2.46-1.58-17.21,2.68-32.97,11.82-44.04,25.2-8.32-6.13-17.18-11.51-26.5-15.99-2.1-1.01-4.27-1.89-6.36-2.92-1.15-.57-2.11-1.14-2.55-2.41-.38-1.11-.43-2.36-.56-3.52-.6-5.46-1.19-10.91-1.79-16.37-.6-5.46-1.15-10.92-1.79-16.37-.48-4.05-1.53-8.71-4.86-11.4-3.01-2.44-7.1-2.14-10.05.2-2.8,2.23-4.41,5.75-5.63,9.03-4.31,11.6-8.43,23.27-12.64,34.9-.21.57-.16,1.08.05,1.49-.43-.12-.91-.07-1.42.21C16.13,55.72,4.09,70.34.84,87.35c-2.92,15.27,1.91,31.22,13.04,42.17,5.45,5.35,12.09,9.15,19.48,10.86-2.7,7.39-5.55,14.76-7.94,22.24-1.96,6.14-2.96,13.34,1.48,18.69,3.96,4.77,10.86,5.91,16.67,4.73,7.29-1.48,12.68-6.87,16.64-12.9,2.29-3.49,4.16-7.23,6.08-10.93.66-1.26,1.39-3.11,2.67-3.88,1.57-.94,3.04.98,4.16,1.92,4.98,4.16,11.28,6.47,17.7,7.08,12.63,1.18,26.25-4.4,32.97-15.45ZM112.26,157.98c-5.02,3.33-11.05,5.17-17.06,5.34-5.9.16-11.88-1.19-16.88-4.38-2.53-1.61-4.82-4.71-7.95-5.03-3.07-.31-5.33,2.04-6.74,4.5-3.81,6.64-6.66,13.94-12.49,19.18-4.51,4.05-10.96,6.03-16.83,3.93-7.25-2.59-7.12-10.37-5.27-16.6,2.55-8.61,6.02-17.02,9.06-25.46.5-1.38-.64-2.49-1.89-2.69-13.69-2.18-24.57-12.99-29.44-25.61-5.49-14.24-2.06-30.04,6.49-42.31,5.1-7.32,11.92-13.36,19.74-17.64,1.21-.66,1.29-1.97.77-2.9.99.33,2.23.02,2.69-1.25,3.54-9.77,7.08-19.54,10.62-29.31,1.36-3.76,2.43-7.96,4.91-11.18,2.22-2.88,5.67-3.37,7.66.08,2.17,3.76,2.14,8.71,2.6,12.91.56,5.08,1.11,10.17,1.67,15.25.27,2.48.54,4.96.81,7.44.27,2.45.33,5.04.91,7.44,1.14,4.75,5.42,5.93,9.39,7.78,10.41,4.87,20.28,10.88,29.45,17.79.95.72,2.22.21,2.86-.62,9.99-12.88,24.64-21.69,40.61-24.73,1.68,14.69-2.66,29.66-11.75,41.31-.6.13-1.11.57-1.29,1.39-1.8,8.32-3.61,16.65-5.41,24.97-1.75,8.08-3.09,16.41-5.7,24.27-2.16,6.52-5.73,12.27-11.53,16.13Z"/>
      <path d="M52.15,162.84c-.87-5.91,1.51-11.94,3.45-17.53.75.09,1.51.15,2.26.13,1.4-.02,3.31.03,4.42-.95,3-2.65-1.68-6.26-3.74-7.45-2.32-1.35-7.44-4.33-9.94-1.93-2.52,2.43.91,6.98,2.48,8.99.03.03.06.06.08.09-.96,2.21-3.05,3.98-4.7,5.64-2.72,2.72-5.44,5.44-8.15,8.16-1.88,1.88.88,4.97,2.76,3.09,2.57-2.57,5.15-5.14,7.71-7.71-.8,3.39-1.21,6.84-.69,10.35.39,2.64,4.43,1.75,4.05-.88Z"/>
      <path d="M106.7,120.23c.07-1.71-1.9-2.63-3.18-1.84-.72-.14-1.49.09-1.99.91-.96,1.57-1.58,3.26-1.85,5.05-.02.11-.04.22-.04.33-.05.39-.09.79-.11,1.19-.08,1.89,2.08,2.68,3.45,1.63,2.28-1.74,3.6-4.42,3.72-7.27Z"/>
      <path d="M33.76,86.93c.4-.61.33-1.32-.02-1.89-.21-2-2.78-1.82-3.76-.65-.49.59-.93,1.2-1.33,1.84-1.34,1.73-2.11,3.85-2.21,6.09-.1,1.95,2.07,2.59,3.45,1.63,2.39-1.66,3.66-4.24,3.87-7.01Z"/>
      <path d="M56.5,48.1c1.73-11.58,1.76-23.32.17-34.92-.23-1.7-2.97-2.27-3.77-.68-5.23,10.38-9.1,21.35-11.44,32.75-.53,2.58,3.42,3.85,3.96,1.23,1.78-8.68,4.43-17.16,7.95-25.28.66,8.91.31,17.87-1.01,26.72-.39,2.63,3.75,2.79,4.14.18Z"/>
      <path d="M143.45,58.84c.45-1.68-1.29-3.31-2.92-2.46-9.42,4.87-17.92,11.37-25.03,19.24-1.77,1.96.98,5.06,2.76,3.09,5.76-6.37,12.4-11.82,19.75-16.19-2.68,8.08-6.48,15.7-11.34,22.73-1.52,2.19,1.97,4.43,3.48,2.24,6.03-8.71,10.53-18.41,13.29-28.64Z"/>
    </g>
  </g>
</svg>