<?xml version="1.0" encoding="UTF-8"?>
<svg id="Calque_2" xmlns="http://www.w3.org/2000/svg" viewBox="0 0 202.96 157.41">
  <g id="Calque_1-2" data-name="Calque_1">
    <g>
      <path d="M190.29,22.16c-6.41-5.04-14.42-7.88-22.6-7.64-4.31.13-8.54,1.07-12.79,1.67-4.28.6-8.59.72-12.89.2-9.84-1.19-19.17-4.78-28.33-8.37-1.42-.55-2.69.23-3.24,1.29-11.77,1.52-23.19-2.35-34.42-5.45-5.81-1.6-11.69-3.03-17.71-3.56-6.88-.61-13.91-.19-20.77.42-6.19.55-12.03,2.06-16.96,6.02-5.23,4.2-9.11,10-12.44,15.75-1.81,3.13-3.43,6.38-4.84,9.71-1.25,2.96-2.88,6.31-3.24,9.53-.29,2.56.77,5.22,3.37,6.07,2.3.75,4.62-.34,6.38-1.8,1.59-1.32,2.82-3.05,3.94-4.85.57.02,1.17-.17,1.7-.67,5.8-5.46,13.45-8.36,21.36-8.37-.66,9.88.06,19.83,1.21,29.68,1.34,11.49,1.74,25.01,9.28,34.42-4.6,5.13-9.15,10.39-12.64,16.22-4.07,6.8-6.17,15.29-1.93,22.5,3.12,5.29,9.39,9.66,15.76,8.29,3.89-.84,6.66-3.77,8.62-7.09,1.02-1.74,1.85-3.72,2.84-5.59,5.11,8.49,16.08,12.31,25.42,8.23,5.23-2.29,10-6.1,16-4.45,6,1.65,10.84,5.74,17.29,5.94.26,0,.49-.02.7-.08-.49,3.69-.99,7.37.45,10.97,1.42,3.54,4.48,6.35,8.48,6.25,6.91-.16,10.49-8.18,12.23-13.77,2.11-6.8,4.21-14.37,4.82-21.87,10.49-11.85,12.05-28.05,13.44-43.2.75-8.17,1.47-16.42,3.58-24.38.58-2.2,1.29-4.36,2.13-6.46.36.24.81.37,1.35.36,10.34-.25,20.27,5.03,25.86,13.74.81,1.26,2.18,1.3,3.18.72.14.31.27.62.4.93.75,1.72,3.39,2.45,4.36.42,6.71-14.19,3.15-31.94-9.33-41.75ZM19.7,31.67c.95-1.34,1.97-2.65,3.08-3.87,3.89-4.26,9.52-7.53,15.32-6.53-.37,2.03-.66,4.07-.9,6.11-6.16-.12-12.17,1.41-17.51,4.29ZM45.01,78.47c-1.11-6.06-1.76-12.26-2.45-18.38-1.44-12.8-2.14-25.79.31-38.51.12-.64,0-1.18-.25-1.62.18-1.12-.3-2.41-1.68-2.86-11.35-3.72-21.03,5.58-26.71,14.24-.81,1.23-7.57,13.56-9.43,11.88-.59-.54.49-2.98.68-3.54.56-1.65,1.18-3.27,1.85-4.87,1.4-3.34,3-6.59,4.79-9.73,2.98-5.21,6.44-10.58,11.12-14.44,4.79-3.95,10.57-4.93,16.58-5.34,6.23-.42,12.57-.89,18.8-.24,5.66.59,11.21,2.01,16.69,3.53,8.31,2.3,16.77,4.96,25.38,5.65-1.67,1.49-3.08,3.32-4.05,5.28-4.21,8.48-2.41,18.01-3.98,27.02-.74,4.21-2.19,8.68-5.51,11.59-1.76,1.54-3.94,2.3-6.06,3.2-2.22.94-4.19,2.06-6.04,3.62-3.95,3.34-7.15,7.67-10.52,11.57-3.55,4.1-7.1,8.21-10.65,12.31-1.11,1.29-2.25,2.57-3.41,3.85-3.11-4.09-4.54-9.19-5.46-14.19ZM118.44,135.53c-5.67-.17-10.44-4.19-15.75-5.74-5.29-1.55-10.04.02-14.77,2.44-4.6,2.36-8.87,4.39-14.15,3.1-4.72-1.16-8.94-4.49-10.76-9.04.38-.35.79-.67,1.24-.96,3.1-1.98,6.99-2.22,10.54-2.71,3.74-.52,7.44-1.2,10.71-3.2,6.11-3.73,9.83-10.69,10.22-17.75.04-.78.03-1.56-.02-2.32,3.72,4.83,7.44,9.66,11.17,14.49,3.06,3.97,6.27,7.86,9.14,11.98,2.25,3.23,3.61,6.37,3.68,10.1-.34-.22-.76-.36-1.26-.38ZM136.57,140.3c-.93,3.13-1.89,6.27-3.77,8.98-1.29,1.86-3.46,4.11-5.97,3.17-3.85-1.45-3.45-7.15-3.02-10.34.54-3.96,1.14-7.86-.1-11.76-1.22-3.85-3.65-7.12-6.08-10.28-6.02-7.84-12.06-15.66-18.1-23.49l-1.35-1.75c2.06.85,4.28,1.24,6.46.68,3.99-1.02,6.15-5.1,4.97-8.99-1.2-3.96-4.84-6.82-8.95-7.08-4.87-.31-9.27,2.38-13.17,4.96-.98.65-1.57,2.22-.77,3.26,1,1.3,2.01,2.61,3.01,3.91-.47.68-.64,1.58-.18,2.5,2.79,5.62,1.48,12.78-2.36,17.59-2.06,2.58-4.74,4.43-7.92,5.32-3.25.91-6.65,1.08-9.96,1.67-3.33.59-6.55,1.65-9.16,3.87-3.16,2.69-4.67,6.59-6.56,10.15-1.54,2.88-3.66,5.9-7.22,6.06-2.57.11-5.02-1.23-6.88-2.92-5.42-4.95-5.25-12.03-2.21-18.31,3.93-8.13,10.84-14.79,16.69-21.55,6.54-7.56,13.07-15.12,19.62-22.67,3.03-3.49,5.9-6.22,10.23-7.99,3.8-1.55,6.96-3.5,9.34-6.93,4.81-6.92,4.69-15.6,5.06-23.66.2-4.27.6-8.73,2.45-12.65,1.55-3.27,4.44-6.71,8.35-6.88,9.18-.4,5.41,11.8,4.32,17.03-1.37,6.6-2.95,13.46-1.76,20.21.59,3.36,1.93,6.51,3.98,9.25,2.25,3,5.38,5.69,6.64,9.31,1.26,3.6.51,7.62,1.13,11.34.62,3.71,2.49,6.85,4.85,9.72,2.34,2.84,5.13,5.31,7.33,8.26,2.1,2.81,3.53,5.97,4.35,9.37.82,3.41,1.01,6.92.81,10.43-.15.41-.17.82-.08,1.21-.25,3.02-.76,6.02-1.38,8.93-.73,3.4-1.64,6.75-2.63,10.08ZM152.23,93.84c-1.19,7.06-3.16,14-6.9,20-.44-5.11-1.86-10.05-4.76-14.54-2.27-3.52-5.36-6.37-8.11-9.49-2.95-3.35-4.57-6.74-4.75-11.23-.17-4.17-.18-8.15-2.32-11.89-2.06-3.6-5.38-6.28-7.39-9.91-3.68-6.63-1.86-14.77-.41-21.76.77-3.7,1.59-7.41,1.99-11.18.34-3.2.26-6.47-1.49-9.07,5.37,2.02,10.81,3.88,16.41,5.12,8.01,1.78,15.81,1.84,23.88.52,7.99-1.3,15.53-1.86,23.04,1.73,6.81,3.26,12.37,8.97,14.99,16.1,2.15,5.86,2.46,12.28.9,18.27-3.44-7.36-7.63-14.57-14.25-19.37-3.49-2.53-8.72-5.34-13.17-4.11-4.27,1.18-6.63,6.05-8.4,9.74-7.64,15.89-6.39,34.07-9.25,51.07ZM166.49,43.35c.85-1.6,1.77-3.47,3.08-4.74,1.86-1.8,4.33-.95,6.46-.06,6.32,2.66,10.67,8.09,14.04,14.08-6.36-5.86-14.8-9.27-23.58-9.28Z"/>
      <path d="M143.79,56.55c-.11-.56-.67-1.14-1.15-1.4-.35-.18-.79-.29-1.22-.27-.76-.8-2-1.06-2.98-.43-1.12.72-1.76,1.99-1.68,3.32.1,1.54,1.08,2.79,2.54,3.26,1.24.4,2.53-.09,3.46-.91,1.03-.91,1.29-2.27,1.03-3.56Z"/>
      <path d="M64.84,42.95c-1.21-.58-2.52-.16-3.2.98-.44.74-.89,1.47-1.33,2.21-.64,1.06-.13,2.67.98,3.2,1.21.58,2.52.16,3.2-.98.44-.74.89-1.47,1.33-2.21.64-1.06.13-2.67-.98-3.2Z"/>
    </g>
  </g>
</svg>