<?xml version="1.0" encoding="UTF-8"?>
<svg id="Calque_2" xmlns="http://www.w3.org/2000/svg" viewBox="0 0 204.35 135.56">
  <g id="Calque_1-2" data-name="Calque_1">
    <g>
      <path d="M202.1,91.8c-2.69-7.61-5.73-15.11-9.09-22.45-6.72-14.68-14.77-28.86-24.16-42.01-4.78-6.69-10.33-13.36-17.79-17.16-7.26-3.7-15.83-4.58-23.25-.86-.22.11-.41.24-.57.38C115.17,1.91,100.75-1.31,86.29.49c-17.58,2.19-34.19,10.79-46.36,23.64-2.91,3.08-5.81,6.6-6.44,10.9-.4.09-.81.32-1.17.71-12.62,13.8-22.01,30.38-27.37,48.3C2.28,93.02.54,102.4.07,111.78c-.36,7.08.59,15.81,6.42,20.66,7.18,5.97,16.52,2.5,22.79-2.99,4.24-3.71,7.65-8.44,10.34-13.5.76,4.29,2.49,8.28,6.72,10.45,5.96,3.06,13.85,2.51,19.94.14.77-.3,1.53-.63,2.27-.98.18.31.45.59.82.83,10.3,6.55,23.43,8.47,35.11,4.75,10.49-3.35,19.43-10.9,24.52-20.65,4.24,1,8.66,1.03,12.92-.38,6-1.98,10.85-6.54,12.17-12.87.81-3.87.48-7.69-.62-11.31,1.88,3.95,4.25,7.68,7.04,11.07,8.47,10.27,23.94,19.43,37.38,13.27,2.98-1.36,5.51-3.82,6.22-7.1.84-3.89-.74-7.77-2.01-11.37ZM39.92,31.76c2.32-3.66,5.87-6.79,9.14-9.59,3.48-2.98,7.26-5.61,11.24-7.89,15-8.61,33.42-12.13,50.22-7.12,15.39,4.59,28.74,16.45,34.92,31.3,2.38,5.7,3.83,12.13,3.62,18.4-.3.36-.52.83-.57,1.4-.16,1.63-.23,3.27-.23,4.9-1.48,6.56-5.06,13.49-11.48,16.16-6.78,2.82-13.62-.72-19.27-4.35-5.98-3.84-11.75-8.56-18.75-10.41-7.93-2.09-15.31.84-21.28,6.11-6.69,5.91-11.21,14.07-18.76,19.03-3.56,2.34-7.54,3.81-11.76,3,1.54-11.56.45-23.53-2.29-34.75-1.04-4.25-2.34-8.43-3.89-12.53-1.78-4.71-3.83-8.98-.86-13.66ZM56.21,123.56c-3.44,0-7.85-.5-10.05-3.5-1.98-2.7-2.08-6.43-2.22-9.64-.04-.85-.43-1.47-.97-1.86.02-.05.04-.09.06-.14,1.36-3.55,2.4-7.21,3.14-10.92,8.88,1.59,16.87-3.98,22.76-10.2,4.74-5,8.85-11.43,14.67-15.36.06.14.15.28.24.41-.04.87.32,1.75,1.18,2.17,1.26.62,2.55,1.04,3.86,1.26.03.37.17.77.47,1.16.69.92,1.39,1.82,2.1,2.72-1.59,13.02-7,26.13-16.36,35.31-5.09,4.99-11.61,8.58-18.88,8.59ZM103.17,126.43c-10.05,3.2-21.05,1.78-30.1-3.49,8.65-5.88,14.73-15.42,18.62-24.94,1.76-4.29,3.05-8.75,3.9-13.29,3.03,3.55,6.21,6.96,9.57,10.21,5.27,5.1,10.97,10.27,17.67,13.41.48.22.96.43,1.45.63-4.58,8.2-12.11,14.61-21.11,17.48ZM147.79,100.06c-3.37,5.44-10.89,7.18-16.82,5.94-7.86-1.64-14.27-7-20.02-12.32-5.18-4.79-10.01-9.96-14.45-15.45.09-.96.16-1.93.22-2.89.87-.44,1.64-1.05,2.24-1.81.42-.29.84-.6,1.23-.94.29-.25.47-.54.59-.86.03-.03.07-.05.1-.08.27-.23.46-.54.57-.88,2.16.98,4.24,2.22,6.22,3.5,5.99,3.87,11.87,8.68,18.96,10.35,7.51,1.77,13.69-.69,18.26-5.25,4.1,5.9,6.93,14.19,2.89,20.69ZM148.07,75.51c.44-.65.85-1.31,1.24-2,.49,2.4,1.14,4.77,1.96,7.08-.93-1.77-2.01-3.48-3.2-5.08Z"/>
      <path d="M60.93,52.52c-.97-.72-2.85-.24-3.33.87-1.32,3.03-.92,6.3,1.39,8.74.42.56.93,1.07,1.53,1.5,1.38,1,3.08-.13,3.58-1.46,1.34-3.6-.18-7.45-3.17-9.66Z"/>
      <path d="M128.58,43.36c-1.09-1.21-2.77-.79-3.62.31-.65.22-1.19.74-1.4,1.62-.74,3.08-.28,6.26,1.47,8.92.77,1.17,2.8,1.8,3.83.49,2.7-3.43,2.7-8.05-.27-11.34Z"/>
      <path d="M61.96,112.38c-.48-.44-1.06-.71-1.72-.71h-.89c-.62,0-1.28.27-1.72.71-.42.42-.74,1.12-.71,1.72.03.63.24,1.28.71,1.72.48.44,1.06.71,1.72.71h.89c.62,0,1.28-.27,1.72-.71.42-.42.74-1.12.71-1.72-.03-.63-.24-1.28-.71-1.72Z"/>
      <path d="M76.14,92.89c-.48-.44-1.06-.71-1.72-.71h-.89c-.62,0-1.28.27-1.72.71-.42.42-.74,1.12-.71,1.72.03.63.24,1.28.71,1.72.48.44,1.06.71,1.72.71h.89c.62,0,1.28-.27,1.72-.71.42-.42.74-1.12.71-1.72-.03-.63-.24-1.28-.71-1.72Z"/>
      <path d="M69.1,105.47c-3.13,0-3.14,4.87,0,4.87s3.14-4.87,0-4.87Z"/>
      <path d="M116,84.04c-.42-.42-1.12-.74-1.72-.71-.63.03-1.28.24-1.72.71-.44.48-.71,1.06-.71,1.72v.89c0,.62.27,1.28.71,1.72.42.42,1.12.74,1.72.71.63-.03,1.28-.24,1.72-.71.44-.48.71-1.06.71-1.72v-.89c0-.62-.27-1.28-.71-1.72Z"/>
      <path d="M132.88,94.84c-3.13,0-3.14,4.87,0,4.87s3.14-4.87,0-4.87Z"/>
      <path d="M144.97,89.54c-.16-.57-.59-1.18-1.12-1.46-1.1-.58-2.72-.34-3.33.87-.3.59-.59,1.18-.89,1.77-.29.59-.42,1.23-.25,1.88.16.56.59,1.18,1.12,1.46,1.1.58,2.72.34,3.33-.87.3-.59.59-1.18.89-1.77.29-.59.42-1.23.25-1.88Z"/>
    </g>
  </g>
</svg>