<?xml version="1.0" encoding="UTF-8"?>
<svg id="Calque_2" xmlns="http://www.w3.org/2000/svg" viewBox="0 0 81.93 59.69">
  <g id="Calque_1-2" data-name="Calque_1">
    <g>
      <path d="M49.59,59.69c-11.1-3.61-20.02-7.99-29.32-14.51C11.27,38.58,2.47,29.92,0,18.31c0,0,43.45,21.3,49.59,41.38Z"/>
      <path d="M14,8.31c18.23,7.85,56.45,31.3,62.59,51.38-11.1-3.61-20.02-7.99-29.32-14.51C38.27,38.58,14,8.31,14,8.31Z"/>
      <path d="M30.66,0c14.93,6.42,46.23,25.58,51.26,42-9.09-2.95-16.4-6.53-24.02-11.86C50.54,24.75,30.66,0,30.66,0Z"/>
    </g>
  </g>
</svg>