<?xml version="1.0" encoding="UTF-8"?>
<svg id="Calque_2" xmlns="http://www.w3.org/2000/svg" viewBox="0 0 104.05 95.45">
  <g id="Calque_1-2" data-name="Calque_1">
    <g>
      <path d="M52.71,53.73c.23.02.47.04.71.05,1.35.06,16.77-1.11,16.62-.59.55-1.96,2.65-2.98,4.52-3.79s3.95-1.93,4.35-3.93c.13-.66.06-1.35-.04-2.02-.83-5.93-3.02-11.67-6.37-16.63-1.16-1.73-2.49-3.39-4.25-4.5-5.93-3.74-11.59,2.25-14.37,7.05-2.62,4.53-4.22,9.57-5.8,14.56-1.51,4.77-.83,9.22,4.62,9.81Z"/>
      <ellipse cx="28.58" cy="35.72" rx="8.5" ry="13.6"/>
      <ellipse cx="45.58" cy="12.82" rx="9.06" ry="14.5" transform="translate(1.42 29.9) rotate(-36.85)"/>
      <circle cx="65.58" cy="69.82" r="2.5"/>
      <circle cx="64.58" cy="60.82" r="2.5"/>
      <circle cx="88.58" cy="39.82" r="2.5"/>
      <circle cx="81.58" cy="32.82" r="2.5"/>
      <path d="M73.19,19.87c8.99,1.68,19.06,2.47,26.09,9.17,9.77,9.09,3.23,21.29-7.83,25.13-11.11,4.11-24.08-1.96-33.96-4.61,0,0,3.1-9.51,3.1-9.51,9.52,3.42,18.62,9.89,28.9,7.82,11.49-3.17,13.2-12.75,3.37-19.59-5.8-4.01-13.13-5.49-19.88-7.5,0,0,.22-.91.22-.91h0Z"/>
      <path d="M60.32,40.32c9.06.26,17.81,2.67,24.84,8.99,7.99,7.43,10.48,19.58,3.48,28.48-14.37,18.67-44.29,17.82-60.49,2.35-4.78-3.92-8.23-8.22-13.68-5.45-5.91,3.75-4.05,9.25,2.16,11.34,6.23,2,13.99-.33,18.82-5.04,1.31-1.3,2.39-2.86,2.97-4.58,0,0,.27,1.24.27,1.24.02.02.07.08.23.14.17.06.38.02.4.02-.1.1-.7.24-.96.17,0,0,.44-2.31.44-2.31-.21-.03-.47.12-.14.02.15-.04.51-.1.81,0,.53.17.87.63,1.25.94-1.16,1.97-2.35,3.91-3.69,5.71-5.11,6.9-12.53,13.38-21.74,13.1-17.05-1.44-20.7-21.93-6.6-30.54,4.67-2.94,11.18-3.58,16.21-1.39,6.07,2.44,10.1,7.27,15.08,10.72,6.81,4.3,15.33,6.22,23.14,4.93,5.91-.96,12.26-3.92,15.87-8.54,1.5-1.98,2.3-3.89,1.84-6.19-1.68-9.31-11.81-13.01-20.99-14.11,0,0,.48-9.99.48-9.99h0Z"/>
    </g>
  </g>
</svg>