<?xml version="1.0" encoding="UTF-8"?>
<svg id="Calque_2" xmlns="http://www.w3.org/2000/svg" viewBox="0 0 144.66 108.17">
  <g id="Calque_1-2" data-name="Calque_1">
    <g>
      <path d="M138.18,43.53c-6.33-6.4-14.81-10.42-23.71-11.46,4.12-5.36,7.95-11.55,7.28-18.39C121.13,7.13,116.18.09,109.05,0c-8.3-.1-12.45,8.48-13.24,15.55-.26,2.31-.26,4.64-.3,6.96-.02,1.16-.01,2.33-.12,3.49-.11,1.21-.41,1.73-1.55,2.25-2.24,1.01-4.74,1.63-7.06,2.43l-7.24,2.49c-10.44,3.59-20.89,7.17-31.33,10.76-.33-1.12-.91-2.19-1.72-3.14-2.25-2.66-5.81-3.43-9.12-3.66-7.79-.56-16.45-.67-23.81,2.27-6.08,2.43-11.57,7.49-13.13,14.04-1.6,6.7,1.65,13.02,7.04,16.95,4.95,3.62,10.88,4.67,16.87,4.85-1.53,1.82-2.64,4.02-3.27,6.34-1.59,5.93.11,11.79,4,16.42,4.2,5.01,10.64,8.09,16.91,9.54,3.57.83,7.36,1.04,10.71-.67,2.77-1.42,4.83-3.98,6.05-6.8,3.09-7.14.58-14.47-2.46-21.16,10.11-4.71,20.22-9.43,30.33-14.14,5.36-2.5,10.71-5.02,16.08-7.5,1.06-.49,2.45-1.36,3.68-.96.95.32,1.72,1.49,2.33,2.23,1.51,1.82,3.14,3.41,5.07,4.79,6.93,4.95,17.45,6.58,24.93,1.9,3.43-2.15,6.1-5.67,5.98-9.88-.13-4.65-3.35-8.67-6.47-11.82ZM140.18,56c-.26,3.72-4.13,6.03-7.35,6.93-3.9,1.08-8.19.59-11.94-.81-4.07-1.53-6.82-4.25-9.63-7.43-1.23-1.39-2.69-2.57-4.57-2.86-2.52-.4-4.81.9-7.01,1.93-4.87,2.27-9.75,4.54-14.62,6.82-10.96,5.11-21.93,10.22-32.89,15.33-1.16.54-1.28,2.05-.8,3.06,2.43,5.15,5.38,11.15,4.02,17-.51,2.2-1.53,4.36-3.25,5.88-2.31,2.05-5.35,2.13-8.25,1.55-8.82-1.76-20.2-8.25-18.9-18.76.56-4.54,3.41-8.78,8.1-9.59,2.49-.43,1.91-4.5-.59-4.4-6.11.26-12.55.62-18.36-1.63-4.62-1.79-9.14-5.77-9.65-10.96-.5-5.09,2.9-9.82,6.96-12.54,5.07-3.39,11.4-4.03,17.35-4.09,3.34-.03,6.95-.21,10.25.38,2.19.39,6.29,2.37,4.77,5.29-1.33,2.55,2.53,4.82,3.86,2.26.1-.2.19-.4.28-.6,8.63-2.96,17.27-5.93,25.9-8.89,4.32-1.48,8.64-2.97,12.96-4.45,2.03-.7,4.07-1.4,6.1-2.09,1.8-.62,3.82-1.13,5.21-2.51,2.65-2.61,1.82-7.65,1.9-11,.1-3.94.42-7.99,2.63-11.38,1.64-2.52,4.42-4.46,7.54-3.8,2.86.6,5.02,3.16,6.15,5.73,3.54,8.03-3.09,16.23-7.86,22.11-1.17,1.45-.5,3.81,1.58,3.82,8.54.04,16.95,3.2,23.34,8.89,2.91,2.59,7.06,6.58,6.77,10.84Z"/>
      <path d="M52.94,62.1c-.28-.49-.8-.88-1.34-1.03-.32-.09-.71-.09-1.07-.02-.34-.08-.7-.08-1.03.03-.55.18-1.06.51-1.34,1.03-.53.98-.48,2.27.38,3.06.55.51,1.26.79,2.02.78.74-.01,1.48-.26,2.02-.79.82-.81.93-2.08.37-3.06Z"/>
      <path d="M69.45,54.81c-2.88,0-2.88,4.48,0,4.48s2.88-4.48,0-4.48Z"/>
      <path d="M87.7,48.35c-.03-.57-.21-1.19-.66-1.58-.51-.45-1.12-.79-1.82-.78-.48,0-.92.11-1.33.36-.39.23-.76.61-.98,1.01-.14.26-.27.56-.33.85-.16.78-.14,1.6.28,2.3.33.56.86.98,1.49,1.16.45.13,1.03.14,1.48-.02.56-.2,1.03-.51,1.34-1.03.21-.36.33-.85.3-1.31.15-.3.24-.63.23-.97Z"/>
      <path d="M102.79,39.69c-.41-.38-1-.72-1.58-.66-.4.04-.8.09-1.21.13-.31-.01-.6.05-.86.19-.28.09-.52.24-.72.46-.39.39-.68,1.02-.66,1.58.03.58.22,1.18.66,1.58.41.38,1,.72,1.58.66.4-.04.8-.09,1.21-.13.31.01.6-.05.86-.19.28-.09.52-.24.72-.46.39-.39.68-1.02.66-1.58-.03-.58-.22-1.18-.66-1.58Z"/>
    </g>
  </g>
</svg>